<?xml version="1.0" encoding="utf-8"?>
<!-- Generator: Adobe Illustrator 25.0.0, SVG Export Plug-In . SVG Version: 6.00 Build 0)  -->
<svg version="1.1" id="Layer_1" xmlns="http://www.w3.org/2000/svg" xmlns:xlink="http://www.w3.org/1999/xlink" x="0px" y="0px"
	 viewBox="0 0 1106 799" style="enable-background:new 0 0 1106 799;" xml:space="preserve">
<style type="text/css">
	.st0{fill:#FFFFFF;}
	.st1{fill:#243E8C;}
	.st2{fill:#D8D3CB;}
	.st3{fill:#FED107;}
	.st4{fill:url(#SVGID_1_);}
	.st5{fill:url(#SVGID_2_);}
	.st6{fill:#F58220;}
	.st7{fill:#FAA21B;}
</style>
<g>
	<path class="st0" d="M564.8,450.5H426.1c-4.2-144.8,150.4-253,290.1-212L564.8,450.5z M865.8,339.5l-45.6,64h57.3
		C875.7,381.5,871.7,360.1,865.8,339.5z M1077.2,596.7l-4,12.6H1060H836.3h-27.6l11.2-25.3c0.6-1.3,1.4-3.3,2.5-5.6
		c1.8-4.1,4.9-11.1,8.1-18.2H730.1l-29.7,41.5l-5.4,7.5h-9.2H526.3c35.6,26,81,40.4,129.7,40.4c23.6,0,46.8-3.4,69.1-10.2l5.4-1.7
		l5.4,1.8c15.5,5.1,27.4,12,35.2,20.5c9,9.8,12.9,22.1,10.9,34.6c-2.2,13.4-10.7,26.6-25.4,39c-12.5,10.6-29.6,20.6-49.4,29.1
		c-43,18.4-95.6,28.5-148.1,28.5c-29.4,0-58.4-3.2-86.1-9.4c-30.6-6.9-59.8-17.6-86.8-31.8c-59-31.1-107.1-78.4-143-140.8H34H6.4
		l11.2-25.3l169.4-383.2l4.7-10.7h11.7h80.4c34-46.3,75.6-86.1,120.7-115.6l0.1,0l0.1,0C474.4,29.6,557,5.9,643.4,5.9
		c123,0,240.4,48.3,322.1,132.5c58.6,57.5,100,131.2,119.7,213.3C1105,433.2,1102.1,517.9,1077.2,596.7z M952.8,151.1
		C814.7,8.8,581.1-17.5,414.4,89.5C367.7,120,326.1,161.2,293,208h-89.6L34,591.2h219.7c180.3,331.9,639,118.7,476.7,65.4
		c-87.6,26.6-190.2,4.6-249.7-65.4h205.1l35.1-49.1h136.7c-2.4,7.1-17.4,40.4-21.2,49.1H1060C1108.7,437.8,1067.9,264,952.8,151.1z
		 M252.7,474.1l107.4-242.5H218.7v0.2L70.5,567.4h375.5c27.3,0,45.2-14.5,58.8-32.9l42.8-60.4H252.7z M773.7,427.1l51.7-72.5
		c-30.3-30.9-72.3-50.1-118.9-50.1c-2.8,0-5.5,0-8.3,0.2L510.7,567.4h162.9l35.1-49.1h157.1c4.4-15.1,6.9-31.1,6.9-47.6
		c0-15.1-2-29.7-5.9-43.6H773.7z M692.8,47.9c-15.5-1.2-31.7-1.8-48.1-1.6c-0.2,0-0.2,0-0.4,0s-0.2,0-0.4,0
		c-19.8,0.2-38,1.4-54.9,3.4c-7.7,1-15.5,2.2-23.2,3.8c-18.2,3.2-34.5,7.3-50.1,12.3c-26.9,9.1-51.3,21-75.9,35.7
		c-0.8,0.4-1.4,0.8-2.2,1.2c-0.8,0.6-1.8,1-2.6,1.6c-2.4,1.8-5.2,3.4-7.9,5.2c40.2-16.6,84.4-26,130.6-25.6
		C742,85.5,900.5,236.9,902.1,425.9c0,0.4,0,0.8,0,1.2c0,0.4,0,1,0,1.4c0,31.1-4,61.2-11.9,89.8c-4.6,17-10.3,33.3-17.4,49.1h169.2
		c9.3-34.3,13.9-70.3,15.5-107.6c0.6-56.1-10.9-109.4-31.7-157.9C970.2,164.4,844,62.3,692.8,47.9z"/>
	<path class="st1" d="M952.8,151.1C814.7,8.8,581.1-17.5,414.4,89.5C367.7,120,326.1,161.2,293,208h-89.6L34,591.2h219.7
		c180.3,331.9,639,118.7,476.7,65.4c-87.6,26.6-190.2,4.6-249.7-65.4h205.1l35.1-49.1h136.7c-2.4,7.1-17.4,40.4-21.2,49.1H1060
		C1108.7,437.8,1067.9,264,952.8,151.1z M1057.6,459.8c-1.6,37.4-6.3,73.3-15.5,107.6H872.9c7.1-15.7,12.7-32.1,17.4-49.1H708.7
		l-35.1,49.1H510.7l187.6-262.7l55.9-78.5c-0.1,0-0.1,0-0.2-0.1c-30.7-12.7-64.8-19.6-101.1-19.6c-4.4,0-8.9,0.2-13.1,0.4
		C515.1,213.5,402.1,329,402.3,449.1c0,8.4,0.4,16.8,1.4,25h144l-42.8,60.4c-13.5,18.4-31.5,32.9-58.8,32.9h-11.9
		c10.1,13.5,24.2,33.2,40.3,51.8c0.1,0,0.2,0.1,0.3,0.1c45.4,44.6,108.6,72.3,178.3,72.3c25.8,0,50.9-3.8,74.3-10.9
		c1-0.2,2-0.4,3-0.4c9.1,0,13.5,12.5,5.2,18.2c-52.5,35.9-111.2,53.1-176.3,52.5c-58.5-0.6-120.9-20.2-155.3-39.6
		c-35.9-20.4-61.8-36.7-91.9-75.9H312c-17.4-20.6-32.1-43.4-43.8-68h72.1c0,0,0,0,0,0c0,0,0,0,0,0H70.5l148.2-335.5v-0.2h86
		c51.5-72,126.8-121.5,247.6-125.4c2.4,0,4.6,0,7.1,0c137.1-0.2,252.2,82,298.6,202.7l-32.5,45.6l-51.7,72.5h128.4
		c0-0.4,0-0.8,0-1.2C900.5,236.9,742,85.5,557.7,84.1c-46.2-0.4-90.4,9.1-130.6,25.6c2.6-1.8,5.5-3.4,7.9-5.2c0.8-0.6,1.8-1,2.6-1.6
		c0.8-0.4,1.4-0.8,2.2-1.2c24.6-14.7,49.1-26.6,75.9-35.7c15.5-5,31.9-9.1,50.1-12.3c7.7-1.6,15.5-2.8,23.2-3.8
		c17-2,35.1-3.2,54.9-3.4c0.2,0,0.2,0,0.4,0s0.2,0,0.4,0c16.4-0.2,32.5,0.4,48.1,1.6c151.2,14.3,277.4,116.5,333.1,254
		C1046.7,350.4,1058.2,403.7,1057.6,459.8z M564.8,450.5H426.1c-4.2-144.8,150.4-253,290.1-212L564.8,450.5z M865.8,339.5
		c5.9,20.6,9.9,42,11.7,64h-57.3L865.8,339.5z"/>
	<path class="st2" d="M902.1,428.5c0,31.1-4,61.2-11.9,89.8h-24.4c4.4-15.1,6.9-31.1,6.9-47.6c0-15.1-2-29.7-5.9-43.6h35.3
		C902.1,427.5,902.1,428.1,902.1,428.5z M754.2,226.2l-55.9,78.5c2.8-0.2,5.5-0.2,8.3-0.2c46.6,0,88.6,19.2,118.9,50.1l32.5-45.6
		C831.9,272,796.1,243.8,754.2,226.2z"/>
	<path class="st3" d="M735.6,698.4c-52.5,35.9-111.2,53.1-176.3,52.5c-58.5-0.6-120.9-20.2-155.3-39.6
		c-35.9-20.4-61.8-36.7-91.9-75.9H312c9.1-13.7,21.4-25.8,35.7-34.1c0,0,0,0,0,0c0,0,0,0,0,0c36.1-1.6,88.2,1.4,126.8,18
		c0,0-0.1-0.1-0.1-0.1c0.1,0,0.2,0.1,0.3,0.1c45.4,44.6,108.6,72.3,178.3,72.3c25.8,0,50.9-3.8,74.3-10.9c1-0.2,2-0.4,3-0.4
		C739.4,680.3,743.9,692.8,735.6,698.4z M559.3,106.3c-2.4,0-4.6,0-7.1,0c-120.9,3.8-196.2,53.5-247.7,125.6h55.5L252.7,474.3h151
		c-1-8.3-1.4-16.8-1.4-25.2C402.1,329,515.1,213.5,639.7,207c4.2-0.2,8.7-0.4,13.1-0.4c36.3,0,70.5,6.9,101.1,19.6
		c42.2,17.6,77.9,45.8,104,82.8C811.5,188.2,696.4,106.1,559.3,106.3z"/>
	
		<linearGradient id="SVGID_1_" gradientUnits="userSpaceOnUse" x1="742.4434" y1="807.8485" x2="742.4434" y2="286.6035" gradientTransform="matrix(1 0 0 -1 0 854)">
		<stop  offset="0.2167" style="stop-color:#FED107"/>
		<stop  offset="0.5978" style="stop-color:#FED107;stop-opacity:0"/>
	</linearGradient>
	<path class="st4" d="M427.1,109.7c40.2-16.6,84.4-26.4,130.6-25.6c186.8,3.2,344.4,154.2,344.4,344.4c0,49.5-10.5,96.3-29.1,138.9
		h169.2c9.5-34.5,15.5-70.7,15.5-108.2c0-227.5-185.5-419.3-412.9-412.9C543,49.3,490.3,70.1,427.1,109.7"/>
	
		<linearGradient id="SVGID_2_" gradientUnits="userSpaceOnUse" x1="252.6504" y1="563.9039" x2="857.9263" y2="563.9039" gradientTransform="matrix(1 0 0 -1 0 854)">
		<stop  offset="0" style="stop-color:#FAA21B"/>
		<stop  offset="0.4781" style="stop-color:#FAA21B;stop-opacity:0"/>
	</linearGradient>
	<path class="st5" d="M559.3,106.1c-2.4,0-4.6,0-7.1,0c-100.5,2.2-187.8,40.8-247.7,125.6h55.5L252.7,474.1h87.2l0,0
		c21.4-146.8,146.8-260.8,300-267.1c4.4-0.2,8.7-0.4,13.1-0.4c36.3,0,70.5,6.9,101.1,19.6c42,17.4,77.7,45.8,103.8,82.8l0,0
		C811.5,188.2,696.4,106.1,559.3,106.1z"/>
	<path class="st6" d="M268.2,567.4c11.7,24.6,26.4,47.4,43.8,68c9.1-13.7,21.4-25.8,35.7-34.1c-3-11.1-5.7-22.4-7.5-33.9
		L268.2,567.4L268.2,567.4z"/>
	<path class="st7" d="M434.2,567.4h-93.9c1.8,11.5,4.2,22.8,7.5,33.9l0,0l0,0c36.1-1.6,88.2,1.4,126.8,18
		C458.4,600.7,444.2,580.9,434.2,567.4z"/>
</g>
</svg>
